<svg width="128" height="136" viewBox="0 0 128 136" fill="none" xmlns="http://www.w3.org/2000/svg">
<rect width="128" height="136" fill="#070708"/>
<path d="M57.168 84.72H68.448V96H57.168V84.72ZM47.016 58.8512C47.016 45.616 56.2656 42.0816 63.6352 42.1568C74.464 42.232 80.104 48.9248 80.1792 56.3696C80.2544 63.2128 76.0432 67.4992 70.5536 70.808C67.2448 72.7632 65.8912 74.7936 65.8912 80.208H59.1232C59.1232 72.0864 61.9808 68.1008 67.0944 64.9424C71.3808 62.3856 73.4864 60.0544 73.4112 56.52C73.336 52.384 70.4032 49 63.6352 48.9248C58.2208 48.8496 53.784 50.88 53.784 58.8512H47.016Z" fill="#FA4A22"/>
</svg>
