<svg width="384" height="134" viewBox="0 0 384 134" fill="none" xmlns="http://www.w3.org/2000/svg">
<rect x="384" y="-946" width="1080" height="384" transform="rotate(90 384 -946)" fill="black"/>
<rect y="-1.23828" width="63.8095" height="67.619" fill="#FA4A22"/>
<rect x="127.619" y="-1.23828" width="63.8095" height="67.619" fill="#FA4A22"/>
<rect x="63.8086" y="66.3809" width="63.8095" height="67.619" fill="#FA4A22"/>
<rect x="191.43" y="66.7617" width="63.8095" height="67.619" fill="#FA4A22"/>
<rect x="319.049" y="66.7617" width="63.8095" height="67.619" fill="#FA4A22"/>
<rect x="255.238" y="-0.857422" width="63.8095" height="67.619" fill="#FA4A22"/>
<path d="M180.36 85.864H187.56V86.344C187.56 88.216 188.52 90.376 191.64 90.376C194.568 90.376 195.48 88.12 195.48 85.24C195.48 81.928 194.088 80.2 191.928 80.248C189.72 80.296 189.048 81.736 188.856 83.08H181.08V63.4H201.816V70.6H188.28V72.376L185.4 76.84H187.32C188.616 74.632 190.248 73.624 192.84 73.528C198.984 73.288 202.68 78.184 202.68 85.096C202.68 93.304 198.36 97.576 191.64 97.576C184.488 97.576 180.36 92.776 180.36 86.344V85.864Z" fill="white"/>
</svg>
