<svg width="384" height="134" viewBox="0 0 384 134" fill="none" xmlns="http://www.w3.org/2000/svg">
<rect x="384" y="-536" width="1080" height="384" transform="rotate(90 384 -536)" fill="#A7A7A7"/>
<path d="M55.553 -1008.79L55.553 -990.991L40 -990.991L40 -1008.79L55.553 -1008.79ZM74.1042 -960.578L74.1042 -926.848L61.1746 -926.848L61.1746 -960.578L74.1042 -960.578ZM55.553 -896.435L55.553 -878.633L40 -878.633L40 -896.435L55.553 -896.435ZM55.553 -840.256L55.553 -822.454L40 -822.454L40 -840.256L55.553 -840.256ZM74.1042 -792.04L74.1042 -758.311L61.1746 -758.311L61.1746 -792.04L74.1042 -792.04ZM55.553 -671.718L55.553 -653.916L40 -653.916L40 -671.718L55.553 -671.718ZM74.1042 -623.503L74.1042 -589.773L61.1746 -589.773L61.1746 -623.503L74.1042 -623.503ZM55.553 -559.36L55.553 -541.558L40 -541.558L40 -559.36L55.553 -559.36ZM55.553 -503.181L55.553 -485.379L40 -485.379L40 -503.181L55.553 -503.181ZM55.553 -447.002L55.553 -429.2L40 -429.2L40 -447.002L55.553 -447.002ZM55.553 -334.643L55.553 -316.842L40 -316.842L40 -334.643L55.553 -334.643ZM74.1042 -286.428L74.1042 -252.699L61.1746 -252.699L61.1746 -286.428L74.1042 -286.428ZM55.553 -222.285L55.553 -204.483L40 -204.483L40 -222.285L55.553 -222.285ZM74.1042 -174.07L74.1042 -140.34L61.1746 -140.34L61.1746 -174.07L74.1042 -174.07ZM55.553 -109.927L55.553 -92.1251L40 -92.1251L40 -109.927L55.553 -109.927ZM74.1042 -61.7115L74.1042 -27.9821L61.1746 -27.9821L61.1746 -61.7115L74.1042 -61.7115ZM74.1042 -5.53237L74.1042 28.1971L61.1745 28.1971L61.1746 -5.53237L74.1042 -5.53237ZM55.553 58.6106L55.553 76.4123L40 76.4123L40 58.6106L55.553 58.6106ZM55.553 114.79L55.553 132.591L39.9999 132.591L40 114.79L55.553 114.79ZM55.553 170.969L55.553 188.771L39.9999 188.771L39.9999 170.969L55.553 170.969ZM55.553 283.327L55.553 301.129L39.9999 301.129L39.9999 283.327L55.553 283.327ZM74.1042 331.542L74.1042 365.272L61.1745 365.272L61.1745 331.542L74.1042 331.542Z" fill="#535353"/>
<path d="M135.447 266.793L135.447 248.991L151 248.991L151 266.793L135.447 266.793ZM116.896 218.578L116.896 184.848L129.825 184.848L129.825 218.578L116.896 218.578ZM135.447 154.435L135.447 136.633L151 136.633L151 154.435L135.447 154.435ZM116.896 106.219L116.896 72.49L129.825 72.49L129.825 106.219L116.896 106.219ZM135.447 42.0764L135.447 24.2748L151 24.2748L151 42.0764L135.447 42.0764ZM135.447 -14.1027L135.447 -31.9044L151 -31.9044L151 -14.1027L135.447 -14.1027ZM135.447 -126.461L135.447 -144.263L151 -144.263L151 -126.461L135.447 -126.461ZM116.896 -174.676L116.896 -208.406L129.825 -208.406L129.825 -174.676L116.896 -174.676ZM116.896 -287.035L116.896 -320.764L129.825 -320.764L129.825 -287.035L116.896 -287.035ZM135.447 -351.178L135.447 -368.979L151 -368.979L151 -351.178L135.447 -351.178ZM135.447 -407.357L135.447 -425.158L151 -425.158L151 -407.357L135.447 -407.357ZM135.447 -463.536L135.447 -481.337L151 -481.337L151 -463.536L135.447 -463.536ZM135.447 -575.894L135.447 -593.696L151 -593.696L151 -575.894L135.447 -575.894ZM116.896 -624.109L116.896 -657.839L129.825 -657.839L129.825 -624.109L116.896 -624.109ZM116.896 -736.468L116.896 -770.197L129.825 -770.197L129.825 -736.468L116.896 -736.468ZM116.896 -792.647L116.896 -826.376L129.825 -826.376L129.825 -792.647L116.896 -792.647ZM135.447 -856.79L135.447 -874.591L151 -874.591L151 -856.79L135.447 -856.79ZM135.447 -969.148L135.447 -986.95L151 -986.95L151 -969.148L135.447 -969.148Z" fill="#535353"/>
<path d="M240.553 -846.793L240.553 -828.991L225 -828.991L225 -846.793L240.553 -846.793ZM259.104 -798.578L259.104 -764.848L246.175 -764.848L246.175 -798.578L259.104 -798.578ZM259.104 -742.399L259.104 -708.669L246.175 -708.669L246.175 -742.399L259.104 -742.399ZM240.553 -622.076L240.553 -604.275L225 -604.275L225 -622.076L240.553 -622.076ZM259.104 -573.861L259.104 -540.132L246.175 -540.132L246.175 -573.861L259.104 -573.861ZM240.553 -509.718L240.553 -491.916L225 -491.916L225 -509.718L240.553 -509.718ZM240.553 -453.539L240.553 -435.737L225 -435.737L225 -453.539L240.553 -453.539ZM240.553 -341.181L240.553 -323.379L225 -323.379L225 -341.181L240.553 -341.181ZM259.104 -292.965L259.104 -259.236L246.175 -259.236L246.175 -292.965L259.104 -292.965ZM259.104 -180.607L259.104 -146.878L246.175 -146.878L246.175 -180.607L259.104 -180.607ZM240.553 -116.464L240.553 -98.6625L225 -98.6625L225 -116.464L240.553 -116.464ZM240.553 -60.285L240.553 -42.4834L225 -42.4834L225 -60.285L240.553 -60.285ZM240.553 -4.10588L240.553 13.6958L225 13.6958L225 -4.10588L240.553 -4.10588ZM240.553 108.252L240.553 126.054L225 126.054L225 108.252L240.553 108.252Z" fill="#535353"/>
<path d="M332.447 152.793L332.447 134.991L348 134.991L348 152.793L332.447 152.793ZM313.896 104.578L313.896 70.8483L326.825 70.8483L326.825 104.578L313.896 104.578ZM313.896 48.3986L313.896 14.6691L326.825 14.6691L326.825 48.3986L313.896 48.3986ZM332.447 -71.9236L332.447 -89.7253L348 -89.7253L348 -71.9236L332.447 -71.9236ZM313.896 -120.139L313.896 -153.868L326.825 -153.868L326.825 -120.139L313.896 -120.139ZM332.447 -184.282L332.447 -202.084L348 -202.084L348 -184.282L332.447 -184.282ZM332.447 -240.461L332.447 -258.263L348 -258.263L348 -240.461L332.447 -240.461ZM332.447 -352.819L332.447 -370.621L348 -370.621L348 -352.819L332.447 -352.819ZM313.896 -401.035L313.896 -434.764L326.825 -434.764L326.825 -401.035L313.896 -401.035ZM313.896 -513.393L313.896 -547.122L326.825 -547.122L326.825 -513.393L313.896 -513.393ZM332.447 -577.536L332.447 -595.337L348 -595.337L348 -577.536L332.447 -577.536ZM332.447 -633.715L332.447 -651.517L348 -651.517L348 -633.715L332.447 -633.715ZM332.447 -689.894L332.447 -707.696L348 -707.696L348 -689.894L332.447 -689.894ZM332.447 -802.252L332.447 -820.054L348 -820.054L348 -802.252L332.447 -802.252ZM313.896 -850.468L313.896 -884.197L326.825 -884.197L326.825 -850.468L313.896 -850.468ZM313.896 -962.826L313.896 -996.555L326.825 -996.555L326.825 -962.826L313.896 -962.826Z" fill="#535353"/>
<path d="M194.32 76.072H187.12V73.768C187.12 67.768 190.672 62.68 198.304 62.632C205.552 62.584 209.728 67.672 209.68 73.672C209.68 80.44 205.84 83.56 199.792 85.72C195.808 87.16 194.992 88.024 194.896 89.656V89.8H209.632V97H187.312L187.408 91.576C187.504 83.992 190.72 81.208 197.296 79C201.904 77.464 202.432 75.88 202.48 73.48C202.528 71.896 201.856 69.784 198.304 69.832C194.32 69.88 194.32 72.904 194.32 74.248V76.072Z" fill="white"/>
</svg>
