<svg width="642" height="795" viewBox="0 0 642 795" fill="none" xmlns="http://www.w3.org/2000/svg">
<rect x="6.39453" y="6.35742" width="628.605" height="782.185" rx="5.35743" stroke="#FA4A22" stroke-width="12.5007"/>
<circle cx="78.7201" cy="82.2552" r="20.5368" fill="#0051FF" stroke="#FA4A22" stroke-width="12.5007"/>
<circle cx="143.902" cy="82.2552" r="20.5368" fill="#0051FF" stroke="#FA4A22" stroke-width="12.5007"/>
<circle cx="209.083" cy="82.2552" r="20.5368" fill="#0051FF" stroke="#FA4A22" stroke-width="12.5007"/>
<circle cx="274.267" cy="82.2552" r="20.5368" fill="#0051FF" stroke="#FA4A22" stroke-width="12.5007"/>
<circle cx="367.128" cy="82.2552" r="20.5368" fill="#0051FF" stroke="#FA4A22" stroke-width="12.5007"/>
<circle cx="432.31" cy="82.2552" r="20.5368" fill="#0051FF" stroke="#FA4A22" stroke-width="12.5007"/>
<circle cx="497.493" cy="82.2552" r="20.5368" fill="#0051FF" stroke="#FA4A22" stroke-width="12.5007"/>
<circle cx="562.675" cy="82.2552" r="20.5368" fill="#0051FF" stroke="#FA4A22" stroke-width="12.5007"/>
<circle cx="78.7201" cy="153.687" r="20.5368" fill="#0051FF" stroke="#FA4A22" stroke-width="12.5007"/>
<circle cx="143.902" cy="153.687" r="20.5368" fill="#0051FF" stroke="#FA4A22" stroke-width="12.5007"/>
<circle cx="209.083" cy="153.687" r="20.5368" fill="#0051FF" stroke="#0051FF" stroke-width="12.5007"/>
<circle cx="274.267" cy="153.687" r="20.5368" fill="#0051FF" stroke="#0051FF" stroke-width="12.5007"/>
<circle cx="367.128" cy="153.687" r="20.5368" fill="#0051FF" stroke="#FA4A22" stroke-width="12.5007"/>
<circle cx="432.31" cy="153.687" r="20.5368" fill="#0051FF" stroke="#FA4A22" stroke-width="12.5007"/>
<circle cx="497.493" cy="153.687" r="20.5368" fill="#0051FF" stroke="#FA4A22" stroke-width="12.5007"/>
<circle cx="562.675" cy="153.687" r="20.5368" fill="#0051FF" stroke="#FA4A22" stroke-width="12.5007"/>
<circle cx="78.7201" cy="225.119" r="20.5368" fill="#0051FF" stroke="#FA4A22" stroke-width="12.5007"/>
<circle cx="143.902" cy="225.119" r="20.5368" fill="#0051FF" stroke="#FA4A22" stroke-width="12.5007"/>
<circle cx="209.083" cy="225.119" r="20.5368" fill="#0051FF" stroke="#FA4A22" stroke-width="12.5007"/>
<circle cx="274.267" cy="225.119" r="20.5368" fill="#0051FF" stroke="#FA4A22" stroke-width="12.5007"/>
<circle cx="367.128" cy="225.119" r="20.5368" fill="#0051FF" stroke="#FA4A22" stroke-width="12.5007"/>
<circle cx="432.31" cy="225.119" r="20.5368" fill="#0051FF" stroke="#FA4A22" stroke-width="12.5007"/>
<circle cx="497.493" cy="225.119" r="20.5368" fill="#0051FF" stroke="#FA4A22" stroke-width="12.5007"/>
<circle cx="562.675" cy="225.119" r="20.5368" fill="#0051FF" stroke="#FA4A22" stroke-width="12.5007"/>
<circle cx="78.7201" cy="326.017" r="20.5368" fill="#0051FF" stroke="#FA4A22" stroke-width="12.5007"/>
<circle cx="143.902" cy="326.017" r="20.5368" fill="#0051FF" stroke="#FA4A22" stroke-width="12.5007"/>
<circle cx="209.083" cy="326.017" r="20.5368" fill="#0051FF" stroke="#0051FF" stroke-width="12.5007"/>
<circle cx="274.267" cy="326.017" r="20.5368" fill="#0051FF" stroke="#FA4A22" stroke-width="12.5007"/>
<circle cx="367.128" cy="326.017" r="20.5368" fill="#0051FF" stroke="#FA4A22" stroke-width="12.5007"/>
<circle cx="432.31" cy="326.017" r="20.5368" fill="#0051FF" stroke="#FA4A22" stroke-width="12.5007"/>
<circle cx="497.493" cy="326.017" r="20.5368" fill="#0051FF" stroke="#FA4A22" stroke-width="12.5007"/>
<circle cx="562.675" cy="326.017" r="20.5368" fill="#0051FF" stroke="#FA4A22" stroke-width="12.5007"/>
<circle cx="78.7201" cy="397.449" r="20.5368" fill="#0051FF" stroke="#FA4A22" stroke-width="12.5007"/>
<circle cx="143.902" cy="397.449" r="20.5368" fill="#0051FF" stroke="#FA4A22" stroke-width="12.5007"/>
<circle cx="209.083" cy="397.449" r="20.5368" fill="#0051FF" stroke="#FA4A22" stroke-width="12.5007"/>
<circle cx="274.267" cy="397.449" r="20.5368" fill="#0051FF" stroke="#FA4A22" stroke-width="12.5007"/>
<circle cx="367.128" cy="397.449" r="20.5368" fill="#0051FF" stroke="#FA4A22" stroke-width="12.5007"/>
<circle cx="432.31" cy="397.449" r="20.5368" fill="#0051FF" stroke="#0051FF" stroke-width="12.5007"/>
<circle cx="497.492" cy="397.449" r="20.5368" fill="#0051FF" stroke="#FA4A22" stroke-width="12.5007"/>
<circle cx="562.675" cy="397.449" r="20.5368" fill="#0051FF" stroke="#FA4A22" stroke-width="12.5007"/>
<circle cx="78.7201" cy="468.882" r="20.5368" fill="#0051FF" stroke="#FA4A22" stroke-width="12.5007"/>
<circle cx="143.902" cy="468.882" r="20.5368" fill="#0051FF" stroke="#FA4A22" stroke-width="12.5007"/>
<circle cx="209.083" cy="468.882" r="20.5368" fill="#0051FF" stroke="#FA4A22" stroke-width="12.5007"/>
<circle cx="274.267" cy="468.882" r="20.5368" fill="#0051FF" stroke="#0051FF" stroke-width="12.5007"/>
<circle cx="367.128" cy="468.882" r="20.5368" fill="#0051FF" stroke="#FA4A22" stroke-width="12.5007"/>
<circle cx="432.31" cy="468.882" r="20.5368" fill="#0051FF" stroke="#FA4A22" stroke-width="12.5007"/>
<circle cx="497.492" cy="468.882" r="20.5368" fill="#0051FF" stroke="#FA4A22" stroke-width="12.5007"/>
<circle cx="562.675" cy="468.882" r="20.5368" fill="#0051FF" stroke="#FA4A22" stroke-width="12.5007"/>
<circle cx="78.7201" cy="569.781" r="20.5368" fill="#0051FF" stroke="#FA4A22" stroke-width="12.5007"/>
<circle cx="143.902" cy="569.781" r="20.5368" fill="#0051FF" stroke="#FA4A22" stroke-width="12.5007"/>
<circle cx="209.083" cy="569.781" r="20.5368" fill="#0051FF" stroke="#FA4A22" stroke-width="12.5007"/>
<circle cx="274.267" cy="569.781" r="20.5368" fill="#0051FF" stroke="#FA4A22" stroke-width="12.5007"/>
<circle cx="367.128" cy="569.781" r="20.5368" fill="#0051FF" stroke="#FA4A22" stroke-width="12.5007"/>
<circle cx="432.31" cy="569.781" r="20.5368" fill="#0051FF" stroke="#FA4A22" stroke-width="12.5007"/>
<circle cx="497.493" cy="569.781" r="20.5368" fill="#0051FF" stroke="#FA4A22" stroke-width="12.5007"/>
<circle cx="562.675" cy="569.781" r="20.5368" fill="#0051FF" stroke="#FA4A22" stroke-width="12.5007"/>
<circle cx="78.7201" cy="641.212" r="20.5368" fill="#0051FF" stroke="#FA4A22" stroke-width="12.5007"/>
<circle cx="143.902" cy="641.212" r="20.5368" fill="#0051FF" stroke="#FA4A22" stroke-width="12.5007"/>
<circle cx="209.083" cy="641.212" r="20.5368" fill="#0051FF" stroke="#FA4A22" stroke-width="12.5007"/>
<circle cx="274.267" cy="641.212" r="20.5368" fill="#0051FF" stroke="#FA4A22" stroke-width="12.5007"/>
<circle cx="367.128" cy="641.212" r="20.5368" fill="#0051FF" stroke="#FA4A22" stroke-width="12.5007"/>
<circle cx="432.31" cy="641.212" r="20.5368" fill="#0051FF" stroke="#FA4A22" stroke-width="12.5007"/>
<circle cx="497.493" cy="641.212" r="20.5368" fill="#0051FF" stroke="#FA4A22" stroke-width="12.5007"/>
<circle cx="562.675" cy="641.212" r="20.5368" fill="#0051FF" stroke="#FA4A22" stroke-width="12.5007"/>
<circle cx="78.7201" cy="712.646" r="20.5368" fill="#0051FF" stroke="#FA4A22" stroke-width="12.5007"/>
<circle cx="143.902" cy="712.646" r="20.5368" fill="#0051FF" stroke="#FA4A22" stroke-width="12.5007"/>
<circle cx="209.083" cy="712.646" r="20.5368" fill="#0051FF" stroke="#FA4A22" stroke-width="12.5007"/>
<circle cx="274.267" cy="712.646" r="20.5368" fill="#0051FF" stroke="#FA4A22" stroke-width="12.5007"/>
<circle cx="367.128" cy="712.646" r="20.5368" fill="#0051FF" stroke="#0051FF" stroke-width="12.5007"/>
<circle cx="432.31" cy="712.646" r="20.5368" fill="#0051FF" stroke="#FA4A22" stroke-width="12.5007"/>
<circle cx="497.493" cy="712.646" r="20.5368" fill="#0051FF" stroke="#FA4A22" stroke-width="12.5007"/>
<circle cx="562.675" cy="712.646" r="20.5368" fill="#0051FF" stroke="#FA4A22" stroke-width="12.5007"/>
</svg>
